<?xml version="1.0" encoding="UTF-8"?>
<svg id="Layer_2" data-name="Layer 2" xmlns="http://www.w3.org/2000/svg" xmlns:xlink="http://www.w3.org/1999/xlink" viewBox="0 0 1920 1080">
  <defs>
    <style>
      .cls-1 {
        fill: none;
      }

      .cls-2 {
        fill: url(#New_Pattern_2);
      }

      .cls-3 {
        fill: #1a1a1a;
      }
    </style>
    <pattern id="New_Pattern_2" data-name="New Pattern 2" x="0" y="0" width="150" height="104.77" patternUnits="userSpaceOnUse" viewBox="0 0 150 104.77">
      <g>
        <rect class="cls-1" width="150" height="104.77"/>
        <polygon class="cls-3" points="180.57 109.33 150.01 157.15 119.33 109.33 119.33 52.38 150.05 83.1 180.67 52.48 180.57 109.33"/>
        <polygon class="cls-3" points="30.57 109.33 .01 157.15 -30.67 109.33 -30.67 52.38 .05 83.1 30.67 52.48 30.57 109.33"/>
        <polygon class="cls-3" points="180.57 4.56 150.01 52.38 119.33 4.56 119.33 -52.38 150.05 -21.67 180.67 -52.29 180.57 4.56"/>
        <polygon class="cls-3" points="105.57 56.94 75.01 104.77 44.33 56.94 44.33 0 75.05 30.71 105.67 .1 105.57 56.94"/>
        <polygon class="cls-3" points="30.57 4.56 .01 52.38 -30.67 4.56 -30.67 -52.38 .05 -21.67 30.67 -52.29 30.57 4.56"/>
      </g>
    </pattern>
  </defs>
  <g id="Layer_1-2" data-name="Layer 1">
    <rect class="cls-2" width="1920" height="1080"/>
  </g>
</svg>