<?xml version="1.0" encoding="UTF-8"?>
<svg id="Layer_2" data-name="Layer 2" xmlns="http://www.w3.org/2000/svg" xmlns:xlink="http://www.w3.org/1999/xlink" viewBox="0 0 1920 1080">
  <defs>
    <style>
      .cls-1 {
        fill: none;
      }

      .cls-2 {
        fill: url(#New_Pattern);
      }
    </style>
    <pattern id="New_Pattern" data-name="New Pattern" x="0" y="0" width="150" height="110" patternUnits="userSpaceOnUse" viewBox="0 0 150 110">
      <g>
        <rect class="cls-1" width="150" height="110"/>
        <polygon points="180.57 114.56 150.01 162.38 119.33 114.56 119.33 57.62 150.05 88.33 180.67 57.71 180.57 114.56"/>
        <polygon points="30.57 114.56 .01 162.38 -30.67 114.56 -30.67 57.62 .05 88.33 30.67 57.71 30.57 114.56"/>
        <polygon points="180.57 4.56 150.01 52.38 119.33 4.56 119.33 -52.38 150.05 -21.67 180.67 -52.29 180.57 4.56"/>
        <polygon points="105.57 59.56 75.01 107.38 44.33 59.56 44.33 2.62 75.05 33.33 105.67 2.71 105.57 59.56"/>
        <polygon points="30.57 4.56 .01 52.38 -30.67 4.56 -30.67 -52.38 .05 -21.67 30.67 -52.29 30.57 4.56"/>
      </g>
    </pattern>
  </defs>
  <g id="Layer_1-2" data-name="Layer 1">
    <rect class="cls-2" width="1920" height="1080"/>
  </g>
</svg>